<?xml version="1.0" encoding="UTF-8" standalone="no"?>
<svg
   xmlns:dc="http://purl.org/dc/elements/1.1/"
   xmlns:cc="http://creativecommons.org/ns#"
   xmlns:rdf="http://www.w3.org/1999/02/22-rdf-syntax-ns#"
   xmlns:svg="http://www.w3.org/2000/svg"
   xmlns="http://www.w3.org/2000/svg"
   xmlns:sodipodi="http://sodipodi.sourceforge.net/DTD/sodipodi-0.dtd"
   xmlns:inkscape="http://www.inkscape.org/namespaces/inkscape"
   sodipodi:docname="logo.svg"
   inkscape:version="1.0 (4035a4fb49, 2020-05-01)"
   id="svg8"
   version="1.1"
   viewBox="0 0 90.311109 22.577777"
   height="64pt"
   width="256pt">
  <defs
     id="defs2" />
  <sodipodi:namedview
     inkscape:window-maximized="1"
     inkscape:window-y="-8"
     inkscape:window-x="-8"
     inkscape:window-height="1377"
     inkscape:window-width="2560"
     units="pt"
     showgrid="false"
     inkscape:document-rotation="0"
     inkscape:current-layer="layer3"
     inkscape:document-units="pt"
     inkscape:cy="52.779195"
     inkscape:cx="172.44751"
     inkscape:zoom="2.8"
     inkscape:pageshadow="2"
     inkscape:pageopacity="0.0"
     borderopacity="1.0"
     bordercolor="#666666"
     pagecolor="#ffffff"
     id="base" />
  <metadata
     id="metadata5">
    <rdf:RDF>
      <cc:Work
         rdf:about="">
        <dc:format>image/svg+xml</dc:format>
        <dc:type
           rdf:resource="http://purl.org/dc/dcmitype/StillImage" />
        <dc:title></dc:title>
      </cc:Work>
    </rdf:RDF>
  </metadata>
  <g
     inkscape:label="Layer 1"
     id="layer3"
     inkscape:groupmode="layer">
    <path
       id="path855"
       d="m 79.183402,8.5363388 q -0.28232,0.5444603 -0.5243,1.1494163 -0.24198,0.6049559 -0.36297,0.9477649 -0.0202,0.100826 -0.12099,0.423469 -0.0807,0.322643 -0.20166,0.725947 -0.10082,0.383139 -0.18148,0.766277 -0.0807,0.383139 -0.0807,0.625122 0,0.100826 -0.18149,0.181486 -0.18148,0.08066 -0.4638,0.08066 -0.44363,0 -0.70578,-0.120991 -0.26215,-0.120991 -0.4033,-0.383139 -0.12099,-0.282313 -0.16132,-0.725947 -0.0202,-0.443634 -0.0202,-1.068756 V 9.6252595 q 0,-0.1613215 -0.0202,-0.3226432 0,-0.1613215 -0.0605,-0.2016519 -0.10083,0.04033 -0.26215,0.5242951 -0.14116,0.4839645 -0.28231,1.1897465 -0.12099,0.685617 -0.22182,1.451895 -0.10083,0.766277 -0.10083,1.371233 0,0.221817 -0.24198,0.262148 -0.22182,0.04033 -0.50413,0.04033 -0.0807,0 -0.28231,-0.04033 -0.18149,-0.02017 -0.38314,-0.0605 -0.18149,-0.04033 -0.34281,-0.120991 -0.16132,-0.0605 -0.20165,-0.161322 -0.10083,-0.262147 -0.16132,-0.867103 -0.0403,-0.604956 -0.0403,-1.875364 0,-0.746112 0.0202,-1.7342068 0.0403,-0.9880949 0.0807,-2.3189979 0,-0.1814867 -0.0202,-0.4637998 -0.0202,-0.302478 -0.0202,-0.3428081 0,-0.1613218 0.12099,-0.181487 0.14115,-0.04033 0.20165,-0.04033 0.14115,0 0.32264,0.04033 0.20166,0.020164 0.38314,0.060496 0.20165,0.04033 0.36297,0.1008258 0.16133,0.04033 0.22182,0.080661 v 4.8598138 q 0.10083,-0.403304 0.22182,-0.9276 0.14115,-0.5444604 0.30248,-1.0687555 0.18148,-0.5242951 0.38314,-0.9679297 0.20165,-0.4436342 0.42347,-0.6452864 0.0807,-0.060496 0.30247,-0.080661 0.22182,-0.04033 0.36298,-0.04033 0.10082,0 0.24198,0.04033 0.16132,0.020164 0.30248,0.080661 0.14115,0.060496 0.24198,0.1613217 0.12099,0.080661 0.14116,0.201652 v 3.2667629 0.181487 q 0,0.120991 0.0403,0.120991 0.0403,0 0.22181,-0.54446 0.20165,-0.544461 0.4638,-1.2905738 0.26215,-0.7461123 0.56463,-1.5325552 0.30248,-0.7864427 0.54446,-1.2502422 0.0403,-0.080661 0.26215,-0.080661 0.24198,-0.020164 0.42347,-0.020164 0.14115,0 0.38313,0.1008261 0.24199,0.080661 0.4638,0.2419823 0.24199,0.1613215 0.40331,0.3629734 0.18149,0.2016522 0.18149,0.4234693 0,0.04033 -0.121,0.2419823 -0.12099,0.181487 -0.16132,0.3831389 -0.14115,0.5646256 -0.20165,1.1090859 -0.0403,0.5444604 -0.0403,1.3914 0,0.362973 0.0202,0.725947 0.0403,0.362973 0.10083,0.665451 0.0807,0.282313 0.20165,0.4638 0.12099,0.181487 0.32264,0.181487 0.28232,0 0.50413,-0.181487 0.22182,-0.201652 0.38314,-0.524295 0.16132,-0.322644 0.28231,-0.746113 0.121,-0.443634 0.20166,-0.907434 0.10082,-0.4839652 0.36297,-0.4839652 0.16132,0 0.20165,0.080661 0.0605,0.08066 0.0605,0.362974 0,0.161322 -0.0202,0.221817 -0.0202,0.262148 -0.18148,0.826773 -0.14116,0.544461 -0.42347,1.109086 -0.26215,0.544461 -0.66545,0.96793 -0.40331,0.403304 -0.9276,0.403304 -0.62512,0 -1.02843,-0.302478 -0.4033,-0.282313 -0.62512,-0.766278 -0.22182,-0.50413 -0.32264,-1.149416 -0.0807,-0.645287 -0.0807,-1.351068 v -0.141158 z m -6.17622,2.7626322 q -0.0403,0.282313 -0.20166,0.665452 -0.16132,0.383138 -0.42347,0.746112 -0.24198,0.342808 -0.58479,0.584791 -0.32264,0.241982 -0.72594,0.241982 -0.60496,0 -1.06876,-0.463799 -0.44363,-0.4638 -0.54446,-1.310738 -0.12099,0.322643 -0.28231,0.746112 -0.16132,0.423469 -0.40331,0.786443 -0.24198,0.362973 -0.56462,0.604956 -0.30248,0.262147 -0.72595,0.262147 -0.12099,0 -0.18149,-0.02016 -0.0605,-0.02017 -0.14115,-0.0605 -0.0605,-0.02017 -0.16132,-0.04033 -0.0807,-0.02016 -0.24199,-0.02016 -0.48396,0 -0.82677,-0.322643 -0.32264,-0.302478 -0.52429,-0.786443 -0.20166,-0.483965 -0.30248,-1.04859 -0.0807,-0.584791 -0.0807,-1.088921 0,-1.2099124 0.12099,-2.2988331 0.14115,-1.088921 0.44363,-1.9156941 0.30248,-0.8469384 0.78644,-1.330903 0.48397,-0.5041302 1.16958,-0.5041302 0.40331,0 0.60496,0.080661 0.22182,0.060496 0.40331,0.1613215 0.18148,0.080661 0.38313,0.1814869 0.22182,0.1008259 0.60496,0.1613215 0.42347,0.2419824 0.58479,0.5847908 0.18149,0.3226432 0.22182,0.7057821 0.0605,0.3831386 0.0403,0.8066079 -0.0202,0.4033041 0.0403,0.8066079 0,0.020167 0.0807,0.060496 0.10082,0.04033 0.22181,0.1008258 0.121,0.04033 0.20166,0.1411565 0.10082,0.080661 0.10082,0.2218172 v 0.080661 q -0.20165,0.5242951 -0.24198,0.927599 -0.0403,0.4033043 -0.0403,0.9679303 0,0.282313 0.0202,0.625121 0.0403,0.322644 0.10083,0.625122 0.0807,0.282312 0.22182,0.483964 0.14115,0.181487 0.36297,0.181487 0.24198,0 0.42347,-0.241982 0.20165,-0.241983 0.32264,-0.544461 0.14116,-0.322643 0.22182,-0.645286 0.10082,-0.322643 0.12099,-0.483965 0.0403,-0.241983 0.20165,-0.241983 0.10083,0 0.18149,0.120992 0.10083,0.100826 0.10083,0.383139 0,0.08066 0,0.161321 0,0.0605 -0.0202,0.161322 z m -3.73056,-3.2667621 q 0,-0.2218174 -0.0403,-0.5242954 -0.0403,-0.302478 -0.14116,-0.5646256 -0.10083,-0.2621475 -0.30248,-0.4436342 -0.20165,-0.1814867 -0.54446,-0.1814867 -0.56463,0 -0.9276,0.5242948 -0.34281,0.5041302 -0.54446,1.209912 -0.20165,0.6856169 -0.26215,1.4317292 -0.0605,0.725947 -0.0605,1.149417 0,0.322643 0.0202,0.786442 0.0403,0.443635 0.12099,0.846939 0.0807,0.403304 0.22182,0.685616 0.16132,0.282313 0.4033,0.282313 0.58479,0 0.88727,-0.443634 0.32265,-0.4638 0.48397,-1.129251 0.16132,-0.685617 0.22181,-1.451895 0.0807,-0.7864424 0.14116,-1.4317289 0.0403,-0.3428084 0.18149,-0.423469 0.14116,-0.1008261 0.14116,-0.1411565 z m -3.68835,2.6214761 q 0,0.141156 -0.10082,0.685616 -0.0807,0.524296 -0.32265,1.129252 -0.22182,0.58479 -0.62512,1.04859 -0.38314,0.4638 -0.98809,0.4638 -0.64529,0 -1.02843,-0.4638 -0.38314,-0.443634 -0.58479,-1.068756 -0.20165,-0.645286 -0.26215,-1.330903 -0.0605,-0.705782 -0.0605,-1.1695813 0,-0.5242951 0.0605,-1.0485903 0.0605,-0.5444603 0.0807,-1.0687557 0,-0.1613215 -0.16132,-0.2016519 -0.16132,-0.04033 -0.30247,-0.04033 -0.24199,0 -0.30248,0.060496 -0.0605,0.060496 -0.0807,0.1411563 l -0.0807,0.6452864 q -0.0807,0.6452864 -0.18149,1.2502424 -0.0807,0.5847911 -0.20165,1.0485911 -0.10083,0.443634 -0.26215,0.725947 -0.14116,0.262147 -0.34281,0.262147 h -0.0202 q -0.0807,0 -0.16132,-0.04033 -0.0605,-0.04033 -0.0605,-0.201652 0,-0.08066 0.0403,-0.241983 0.16132,-0.705781 0.20165,-1.169581 0.0403,-0.4637999 0.0605,-0.8267733 V 9.1009644 q 0,-0.1008261 0,-0.2419824 0.0202,-0.1411565 0.0202,-0.3428084 V 7.9918784 q 0,-0.2218173 0,-0.4637997 0,-0.2419823 -0.0403,-0.5242951 l -0.0605,-1.1897468 q 0,-0.120991 0.10083,-0.2218171 0.10082,-0.1008261 0.26214,-0.1814867 0.16133,-0.080661 0.34281,-0.1209913 0.18149,-0.04033 0.32265,-0.04033 0.3428,0 0.3428,0.4436342 V 5.793872 l -0.0202,0.4436343 v 0.1209913 q 0,0.1411562 0.0605,0.1814867 0.0605,0.020167 0.24199,0.060496 h 0.0605 q 0.16132,0.020164 0.52429,0.04033 0.36298,0.020164 0.72595,0.080661 0.36297,0.060496 0.62512,0.2016522 0.28231,0.120991 0.28231,0.3629737 0,0.080661 -0.0403,0.2419823 -0.0403,0.1411563 -0.10082,0.302478 -0.0605,0.1411563 -0.10083,0.2621476 -0.0403,0.1209913 -0.0403,0.1613214 -0.36297,1.391399 -0.36297,2.9037895 0,0.120991 0.0202,0.443634 0.0202,0.322643 0.0807,0.665452 0.0605,0.342808 0.18149,0.604956 0.12099,0.262147 0.30247,0.262147 0.30248,0 0.54446,-0.362973 0.24199,-0.383139 0.42347,-0.867104 0.18149,-0.50413 0.28232,-1.00826 0.12099,-0.50413 0.16132,-0.746112 0.0403,-0.2218177 0.12099,-0.2621482 0.10082,-0.060496 0.18148,-0.060496 0.28232,0 0.28232,0.3629732 0,0.04033 -0.0202,0.221817 0,0.161322 -0.0202,0.241983 z m -6.02057,3.367588 q 0,0.201652 -0.18148,0.282313 -0.18149,0.08066 -0.34281,0.08066 l -0.40331,-0.04033 q -0.10082,0 -0.10082,0.120991 l -0.0202,0.241983 q 0.0202,0.54446 0.0202,1.371233 0,0.826772 0,1.59305 0,0.806608 -0.0605,1.572886 -0.0403,0.786442 -0.22182,1.391398 -0.18149,0.625122 -0.5243,0.988095 -0.32264,0.383139 -0.90743,0.383139 -0.50413,0 -1.06876,-0.0605 -0.54446,-0.04033 -1.00826,-0.241982 -0.44363,-0.201652 -0.74611,-0.604956 -0.28231,-0.383139 -0.28231,-1.04859 0,-0.665452 0.14116,-1.371234 0.16132,-0.685617 0.44363,-1.351068 0.28231,-0.645286 0.66545,-1.250242 0.40331,-0.58479 0.86711,-1.04859 0.24198,-0.241982 0.52429,-0.50413 0.30248,-0.241982 0.5243,-0.403304 v -0.02017 q 0.0403,-0.423469 0.0605,-0.846939 0.0202,-0.423469 0.0202,-0.867103 -0.10083,0.181487 -0.24199,0.50413 -0.14115,0.302478 -0.3428,0.584791 -0.18149,0.282312 -0.42348,0.483964 -0.24198,0.221818 -0.54446,0.221818 -0.16132,0 -0.28231,-0.0605 -0.12099,-0.0605 -0.34281,-0.0605 -0.56462,-0.04033 -0.94776,-0.302478 -0.36297,-0.262147 -0.58479,-0.725947 -0.20165,-0.463799 -0.28232,-1.088921 -0.0807,-0.645286 -0.0807,-1.431729 0,-0.9477643 0.10083,-1.9560241 0.12099,-1.0082601 0.4033,-1.8350332 0.28232,-0.8469384 0.74612,-1.3712338 0.48396,-0.5444603 1.20991,-0.5444603 0.0807,0 0.20165,0.060496 0.14116,0.060496 0.28231,0.1411562 0.16133,0.060496 0.30248,0.1411565 0.16132,0.060496 0.24198,0.080661 0.40331,0.080661 0.74611,0.2016519 0.34281,0.1209913 0.5848,0.3226432 0.24198,0.181487 0.38314,0.5041302 0.14115,0.302478 0.14115,0.7662775 0,0.3226432 -0.0605,0.5847908 -0.0403,0.2621475 -0.0403,0.6654516 0,0.1613215 0.12099,0.2218171 0.12099,0.060496 0.26215,0.1008261 0.16132,0.04033 0.28231,0.1008259 0.121,0.04033 0.121,0.2016521 0,0.04033 -0.10083,0.2016519 -0.0807,0.1411566 -0.10083,0.1814867 -0.0605,0.1613218 -0.10082,0.5242952 -0.0403,0.3428095 -0.0605,0.7662785 -0.0202,0.403304 -0.0403,0.846938 0,0.423469 0,0.766278 0,0.262147 0,0.705782 0,0.423469 0.0202,0.705782 h 0.0807 q 0.0403,0 0.0807,-0.02017 0.0403,0 0.0605,0 0.18148,0 0.48396,0.100825 0.32264,0.120992 0.32264,0.342809 z m -2.58114,-6.2310467 q 0,-0.2218172 -0.0403,-0.5041299 -0.0403,-0.2823128 -0.14116,-0.5242952 -0.10083,-0.2621475 -0.30248,-0.4234693 -0.18148,-0.1814867 -0.4638,-0.1814867 -0.38314,0 -0.72595,0.302478 -0.32264,0.302478 -0.58479,0.8671036 -0.24198,0.5444603 -0.4033,1.3510683 -0.14116,0.7864429 -0.14116,1.7947029 0,0.423469 0.0202,0.887269 0.0403,0.443634 0.10083,0.806608 0.0807,0.362973 0.22182,0.604956 0.16132,0.241982 0.4033,0.241982 0.42347,0 0.74611,-0.362974 0.32265,-0.362973 0.5243,-0.887268 0.22182,-0.544461 0.32264,-1.109086 0.12099,-0.584791 0.14116,-1.0082603 0.0202,-0.5847908 0.0605,-0.7864427 0.0403,-0.2218171 0.0807,-0.2823128 0.12099,-0.1613217 0.14115,-0.3831388 0.0403,-0.2218172 0.0403,-0.4033041 z m -0.0807,7.0174897 q -0.4638,0.322643 -0.88727,0.907434 -0.4033,0.584791 -0.70578,1.270406 -0.30248,0.685617 -0.48397,1.391399 -0.16132,0.705782 -0.16132,1.270408 0,0.201652 0.0403,0.443634 0.0403,0.241982 0.12099,0.443634 0.10083,0.221818 0.26215,0.362974 0.18149,0.141156 0.42347,0.141156 0.42347,0 0.68562,-0.362973 0.28231,-0.342809 0.42346,-0.826773 0.16133,-0.483965 0.20166,-0.988095 0.0605,-0.50413 0.0605,-0.806608 0,-0.0605 0,-0.181487 0,-0.120991 0,-0.4638 0.0202,-0.342808 0.0202,-0.967928 0,-0.604956 0,-1.633381 z M 51.418442,4.1604906 q 0,0.1411562 -0.14116,0.2419823 -0.14115,0.080661 -0.32264,0.120991 -0.16132,0.04033 -0.32264,0.060496 -0.16132,0.020164 -0.20166,0.020164 -0.42347,0 -0.84693,-0.2419823 -0.40331,-0.2419826 -0.74612,-0.7662775 -0.0403,-0.060496 -0.12099,-0.1613217 -0.0807,-0.1008261 -0.0807,-0.1411563 0,-0.1008261 0.14116,-0.1814869 0.16132,-0.080661 0.34281,-0.1613216 0.20165,-0.080661 0.36297,-0.1209912 0.18149,-0.04033 0.24198,-0.04033 0.40331,0 0.78645,0.201652 0.4033,0.201652 0.64528,0.7461125 0.0403,0.060496 0.14116,0.2218171 0.12099,0.1411563 0.12099,0.2016514 z m 2.05685,6.1100554 q -0.0605,0.483965 -0.22182,1.00826 -0.16132,0.524295 -0.4638,0.988095 -0.28231,0.443634 -0.72595,0.746112 -0.44363,0.282313 -1.08891,0.282313 -0.50413,0 -1.02843,-0.342809 -0.5243,-0.362973 -0.72595,-0.947764 -0.18148,-0.584791 -0.18148,-1.129251 0,-0.161322 0.0202,-0.483965 0.0202,-0.322643 0.0202,-0.7864427 V 7.3869225 q 0,-0.1613218 -0.0202,-0.3428085 0,-0.1814869 -0.0403,-0.3428084 -0.0202,-0.080661 -0.0807,-0.1814867 -0.0403,-0.1008261 -0.0403,-0.1411565 0,-0.080661 0.10082,-0.1209911 0.10083,-0.060496 0.22182,-0.080661 0.12099,-0.020164 0.22182,-0.020164 0.12099,0 0.12099,0 0.0605,0 0.28231,0.020164 0.22182,0 0.4638,0.060496 0.24198,0.060496 0.42347,0.2016519 0.20165,0.1209913 0.20165,0.3629734 0.0202,0.060496 -0.0807,0.2218174 -0.0807,0.1613214 -0.16132,0.5646255 -0.0202,0.1613215 -0.0403,0.302478 -0.0202,0.1209911 -0.0403,0.2823128 -0.0202,0.1613215 -0.0403,0.4033041 -0.0202,0.2218171 -0.0403,0.5847908 v 1.2099118 q 0,0.322643 0.0202,0.665451 0.0202,0.322644 0.0807,0.604956 0.0807,0.262148 0.24198,0.443635 0.16133,0.161321 0.42347,0.161321 0.38314,0 0.60496,-0.221817 0.22182,-0.221817 0.34281,-0.383139 0.22181,-0.302478 0.34281,-0.746112 0.12099,-0.463799 0.22181,-0.947764 l 0.0403,-0.2016522 q 0.0605,-0.3024777 0.36298,-0.3024777 0.30248,0 0.30248,0.423469 v 0.1008261 z m -8.74004,-0.4234694 q 0.0202,-1.028425 0.0605,-2.0971808 0.0403,-1.0687554 0.0807,-1.9761894 0,-0.1613215 -0.32264,-0.2218172 -0.32264,-0.060496 -0.72595,-0.1209913 -0.4033,-0.060496 -0.72595,-0.1814867 -0.32264,-0.1411562 -0.32264,-0.4436345 0,-0.2621475 0.5243,-0.302478 0.52429,-0.04033 1.55272,-0.04033 0.0807,0 0.10082,-0.2419823 0.0403,-0.2419824 0.0403,-0.604956 0.0202,-0.3831386 0.0202,-0.806608 0.0202,-0.4234692 0.0403,-0.7864428 0.0202,-0.3831388 0.0605,-0.6251212 0.0605,-0.2419824 0.14116,-0.2419824 0.10082,0 0.36297,0.04033 0.26215,0.04033 0.54446,0.1209912 0.28231,0.060496 0.48397,0.1613216 0.22181,0.100826 0.22181,0.2218172 l -0.22183,2.621476 q 0,0.1209913 0.20166,0.1814867 0.22182,0.04033 0.54446,0.060496 0.34281,0 0.70578,0 0.38314,0 0.70578,0.060496 0.34281,0.060496 0.54446,0.2016519 0.22182,0.1209913 0.22182,0.3831389 0,0.04033 -0.0403,0.1411565 -0.0403,0.080661 -0.10083,0.080661 -0.0403,0 -0.12099,-0.060496 -0.0605,-0.060496 -0.36297,-0.060496 -0.0807,0 -0.44364,0.020164 -0.36297,0.020164 -0.76627,0.060496 -0.40331,0.04033 -0.74612,0.1008261 -0.32264,0.04033 -0.36297,0.120991 -0.0202,0.04033 -0.0605,0.483965 -0.0202,0.423469 -0.0605,1.1292511 -0.0202,0.7057818 -0.0403,1.633381 -0.0202,0.907434 -0.0202,1.9156938 0,0.383139 0.0403,0.746112 0.0403,0.362974 0.12099,0.665452 0.0807,0.282313 0.20165,0.463799 0.14116,0.181487 0.32265,0.181487 0.26214,0 0.48396,-0.221817 0.22182,-0.221817 0.4033,-0.604956 0.18149,-0.383139 0.32265,-0.867104 0.14116,-0.483964 0.24198,-0.988094 0.0605,-0.3024779 0.14116,-0.4234692 0.0807,-0.1411563 0.24198,-0.1411563 0.14116,0 0.24198,0.1008258 0.12099,0.080661 0.12099,0.4033037 0,0.201652 -0.0202,0.262148 -0.0605,0.362973 -0.24198,1.00826 -0.16132,0.625121 -0.4638,1.250242 -0.28232,0.604956 -0.70578,1.068756 -0.42347,0.463799 -0.9881,0.463799 -0.54446,0 -0.94776,-0.322643 -0.40331,-0.302478 -0.68562,-0.846938 -0.26215,-0.564626 -0.4033,-1.310738 -0.14116,-0.766278 -0.14116,-1.633381 z m -0.41464,2.3996584 q 0,0.483965 -0.32265,0.746113 -0.32264,0.262147 -0.74611,0.383139 -0.40331,0.120991 -0.82677,0.141156 -0.40331,0.04033 -0.58479,0.04033 -0.28232,0 -0.70579,-0.06049 -0.4033,-0.0605 -0.8066,-0.181487 -0.38314,-0.141156 -0.66546,-0.383139 -0.26214,-0.241982 -0.26214,-0.604956 0,-0.221817 0.16132,-0.302478 0.18149,-0.100826 0.34281,-0.100826 0.22181,0 0.42347,0.161322 0.22181,0.161321 0.44363,0.342808 0.24198,0.181487 0.5243,0.342809 0.28231,0.161321 0.64528,0.161321 0.16132,0 0.42347,-0.100826 0.28231,-0.120991 0.28231,-0.403304 0,-0.282313 -0.24198,-0.54446 -0.22182,-0.262148 -0.58479,-0.544461 -0.34281,-0.282312 -0.74611,-0.58479 -0.40331,-0.302478 -0.76628,-0.645287 -0.34281,-0.3629734 -0.58479,-0.7864425 -0.22182,-0.423469 -0.22182,-0.9275992 0,-0.7057818 0.44364,-1.1897468 0.4638,-0.4839647 1.06875,-0.7662775 0.62512,-0.2823127 1.27041,-0.403304 0.64529,-0.1209911 1.00826,-0.1209911 0.34281,0 0.68562,0.1411563 0.34281,0.1411565 0.34281,0.5444606 0,0.120991 -0.0605,0.3629734 -0.0403,0.2218171 -0.16132,0.4436345 -0.10083,0.2218171 -0.28232,0.4033038 -0.18148,0.1613218 -0.4638,0.1613218 -0.0807,0 -0.16132,-0.060496 -0.0807,-0.080661 -0.18149,-0.1613217 -0.10082,-0.1008261 -0.22181,-0.1613217 -0.10083,-0.080661 -0.24199,-0.080661 -0.70578,0 -0.98809,0.4234693 -0.28231,0.4033038 -0.28231,0.8671036 0,0.4033038 0.4638,0.8469383 0.48396,0.4436339 1.04859,0.8872689 0.58479,0.443634 1.04859,0.887268 0.48396,0.423469 0.48396,0.826773 z m -8.50027,-3.7103962 q -0.28231,0.5444603 -0.52429,1.1494163 -0.24198,0.6049559 -0.36298,0.9477649 -0.0202,0.100826 -0.12099,0.423469 -0.0807,0.322643 -0.20165,0.725947 -0.10082,0.383139 -0.18149,0.766277 -0.0807,0.383139 -0.0807,0.625122 0,0.100826 -0.18148,0.181486 -0.18149,0.08066 -0.4638,0.08066 -0.44364,0 -0.70578,-0.120991 -0.26215,-0.120991 -0.40331,-0.383139 -0.12099,-0.282313 -0.16132,-0.725947 -0.0202,-0.443634 -0.0202,-1.068756 V 9.6252595 q 0,-0.1613215 -0.0202,-0.3226432 0,-0.1613215 -0.0605,-0.2016519 -0.10082,0.04033 -0.26215,0.5242951 -0.14115,0.4839645 -0.28231,1.1897465 -0.12099,0.685617 -0.22182,1.451895 -0.10082,0.766277 -0.10082,1.371233 0,0.221817 -0.24198,0.262148 -0.22182,0.04033 -0.50413,0.04033 -0.0807,0 -0.28232,-0.04033 -0.18148,-0.02017 -0.38314,-0.0605 -0.181482,-0.04033 -0.342804,-0.120991 -0.161321,-0.0605 -0.201652,-0.161322 -0.100826,-0.262147 -0.161321,-0.867103 -0.04033,-0.604956 -0.04033,-1.875364 0,-0.746112 0.02017,-1.7342068 0.04033,-0.9880949 0.08066,-2.3189979 0,-0.1814867 -0.02017,-0.4637998 -0.02016,-0.302478 -0.02016,-0.3428081 0,-0.1613218 0.120991,-0.181487 0.141157,-0.04033 0.201652,-0.04033 0.141157,0 0.322644,0.04033 0.20165,0.020164 0.38314,0.060496 0.20165,0.04033 0.36297,0.1008258 0.16132,0.04033 0.22182,0.080661 v 4.8598138 q 0.10082,-0.403304 0.22182,-0.9276 0.14115,-0.5444604 0.30247,-1.0687555 0.18149,-0.5242951 0.38314,-0.9679297 0.20165,-0.4436342 0.42347,-0.6452864 0.0807,-0.060496 0.30248,-0.080661 0.22182,-0.04033 0.36297,-0.04033 0.10083,0 0.24199,0.04033 0.16132,0.020164 0.30247,0.080661 0.14116,0.060496 0.24199,0.1613217 0.12099,0.080661 0.14115,0.201652 v 3.2667629 0.181487 q 0,0.120991 0.0403,0.120991 0.0403,0 0.22182,-0.54446 0.20166,-0.544461 0.4638,-1.2905738 0.26215,-0.7461123 0.56463,-1.5325552 0.30248,-0.7864427 0.54446,-1.2502422 0.0403,-0.080661 0.26215,-0.080661 0.24198,-0.020164 0.42347,-0.020164 0.14115,0 0.38313,0.1008261 0.24199,0.080661 0.4638,0.2419823 0.24199,0.1613215 0.40331,0.3629734 0.18148,0.2016522 0.18148,0.4234693 0,0.04033 -0.12099,0.2419823 -0.12099,0.181487 -0.16132,0.3831389 -0.14115,0.5646256 -0.20165,1.1090859 -0.0403,0.5444604 -0.0403,1.3914 0,0.362973 0.0202,0.725947 0.0403,0.362973 0.10083,0.665451 0.0807,0.282313 0.20165,0.4638 0.12099,0.181487 0.32264,0.181487 0.28231,0 0.50413,-0.181487 0.22182,-0.201652 0.38314,-0.524295 0.16132,-0.322644 0.28231,-0.746113 0.12099,-0.443634 0.20165,-0.907434 0.10083,-0.4839652 0.36298,-0.4839652 0.16132,0 0.20165,0.080661 0.0605,0.08066 0.0605,0.362974 0,0.161322 -0.0202,0.221817 -0.0202,0.262148 -0.18149,0.826773 -0.14115,0.544461 -0.42346,1.109086 -0.26215,0.544461 -0.66546,0.96793 -0.4033,0.403304 -0.9276,0.403304 -0.62512,0 -1.02842,-0.302478 -0.4033,-0.282313 -0.62512,-0.766278 -0.22182,-0.50413 -0.32265,-1.149416 -0.0807,-0.645287 -0.0807,-1.351068 v -0.141158 z m -9.222108,4.0330402 q -0.403304,-0.403304 -0.665452,-1.230078 -0.0605,0.120992 -0.161322,0.524296 -0.08066,0.403304 -0.262147,0.846938 -0.181487,0.423469 -0.483965,0.786443 -0.282313,0.342808 -0.725947,0.342808 -1.290573,0 -1.774538,-0.746112 -0.483964,-0.746113 -0.564625,-2.198007 V 6.0358539 q 0.04033,-0.1411562 0.04033,-0.2016519 0.02017,-0.060496 0.181487,-0.060496 0.100826,0 0.342808,0.04033 0.262148,0.04033 0.524296,0.1209913 0.262147,0.060496 0.463799,0.1814867 0.221817,0.1209913 0.221817,0.2823128 v 3.5692403 q 0,0.3629739 0,0.8066079 0.02016,0.443634 0.0605,0.826773 0.06049,0.362974 0.181487,0.625121 0.120991,0.241983 0.342808,0.241983 0.584791,0 0.907434,-1.169582 0.322643,-1.189747 0.362974,-3.7305616 0,-0.1613215 -0.08066,-0.3226433 -0.08066,-0.1613214 -0.08066,-0.3831388 0.04033,-0.1613215 0.322643,-0.2016519 0.302478,-0.04033 0.544461,-0.04033 0.604956,0 0.887268,0.1209911 0.282313,0.1209913 0.282313,0.7259473 -0.04033,0.3629736 -0.08066,0.5847908 -0.02017,0.2016519 -0.04033,0.3831388 0,0.1613215 -0.02016,0.3629737 0,0.1814867 0,0.5444603 0,0.4637995 0.04033,0.9679296 0.04033,0.50413 0.141157,0.927599 0.100826,0.42347 0.241982,0.705782 0.161322,0.262148 0.403304,0.262148 0.221817,0 0.342808,-0.120991 0.120992,-0.141157 0.221818,-0.302478 0.100826,-0.161322 0.201652,-0.282313 0.100826,-0.141156 0.282312,-0.141156 0.161322,0 0.241983,0.120991 0.08066,0.100826 0.08066,0.201652 0,0.383139 -0.201652,0.645286 -0.181486,0.262148 -0.463799,0.423469 -0.262148,0.161322 -0.54446,0.241983 -0.282313,0.06049 -0.4638,0.06049 -0.342808,0 -0.584791,-0.08066 -0.241982,-0.08066 -0.483965,-0.241983 z M 20.76671,8.8186516 q -0.181487,0.8872688 -0.645287,1.8148684 -0.463799,0.927599 -1.109086,1.673711 -0.645286,0.746112 -1.431729,1.209912 -0.786443,0.483965 -1.633381,0.483965 h -0.04033 q -0.524296,0 -1.028425,-0.262148 -0.50413,-0.241982 -1.189747,-0.524295 -0.08066,-0.04033 -0.322643,-0.08066 -0.221818,-0.06049 -0.483965,-0.161321 -0.241983,-0.100826 -0.4638,-0.262148 -0.201653,-0.181487 -0.262147,-0.4638 V 4.9872637 q 0,-0.5847908 -0.0605,-1.088921 -0.0605,-0.5041299 -0.302478,-0.725947 h 0.181487 q 0.443634,0 0.907434,-0.1411564 0.483965,-0.1411564 0.786443,-0.1411564 0.201652,0 0.302478,0.100826 0.120991,0.080661 0.120991,0.3226433 v 8.7718618 q 0.383139,0.120991 0.564625,0.241982 0.201652,0.100826 0.322644,0.181487 0.141156,0.08066 0.262147,0.141156 0.120991,0.04033 0.362974,0.04033 0.947764,0 1.613216,-0.524295 0.685616,-0.524296 1.129251,-1.411564 0.443634,-0.8872692 0.645286,-2.0366853 0.221817,-1.1695818 0.221817,-2.419824 0,-0.9880949 -0.241982,-1.8350332 Q 18.75019,3.6160302 18.185564,2.9909089 17.641104,2.3456225 16.693339,1.9826489 15.76574,1.5995101 14.33401,1.5793449 h -0.141156 q -2.843293,0 -4.2346906,0.7864428 -1.371234,0.7864428 -1.371234,2.1173461 0,0.2621475 0.100826,0.4436342 0.08066,0.181487 0.181487,0.3629737 0.100826,0.1814867 0.201652,0.3831388 0.100826,0.201652 0.120991,0.50413 -0.02016,0.04033 -0.161322,0.2419823 -0.120991,0.2016522 -0.201652,0.2218171 -0.04033,0.020164 -0.181486,0.020164 -0.221818,0 -0.50413,-0.1209913 Q 7.8408174,6.3988276 7.5786694,6.1770105 7.3165214,5.9350281 7.1552004,5.6123849 6.9737134,5.2897417 6.9737134,4.9066028 q 0,-0.9679296 0.705782,-1.7543723 0.705782,-0.806608 1.835033,-1.3712336 1.1494166,-0.5847908 2.5408156,-0.88726872 1.411564,-0.3226432 2.802962,-0.3226432 0.846938,0 1.693877,0.1613216 0.846938,0.1411564 1.593051,0.50412992 0.766277,0.3428084 1.371233,0.907434 0.604956,0.5444604 0.96793,1.3510684 0.322643,0.6452864 0.443634,1.3913987 0.120992,0.7259473 0.120992,1.4922248 0,1.209912 -0.282313,2.4399892 z" />
  </g>
</svg>
